<svg width="809" height="418" viewBox="0 0 809 418" fill="none" xmlns="http://www.w3.org/2000/svg">
<g filter="url(#filter0_d_1_175)">
<path d="M803 204.3C803 204.3 802.5 222.8 801.5 231.8C800.5 240.8 779.5 316.8 768.5 330.8C757.5 344.8 699 366.3 677 371.3C655 376.3 612 378.3 594 378.3C576 378.3 540 373.3 540 373.3C540 373.3 374 371.3 351 372.3C328 373.3 181 382.3 163 383.3C145 384.3 107 384.3 77.0002 377.3C47.0002 370.3 42.0002 365.3 42.0002 365.3L34.0002 361.3L32.0002 349.3C32.0002 349.3 13.0002 316.3 10.0002 280.3C7.00018 244.3 6.00018 205.3 6.00018 205.3" stroke="#1E1818" stroke-width="3" stroke-miterlimit="10"/>
<path d="M803 204.3C803 204.3 802.5 185.77 801.5 176.77C800.5 167.77 779.5 91.7699 768.5 77.7699C757.5 63.7699 699 42.2698 677 37.2698C655 32.2698 612 30.2698 594 30.2698C576 30.2698 540 35.2698 540 35.2698C540 35.2698 374 37.2698 351 36.2698C328 35.2698 181 26.2698 163 25.2698C145 24.2698 107 24.2698 77.0002 31.2698C47.0002 38.2698 42.0002 43.2698 42.0002 43.2698L34.0002 47.2698L32.0002 59.2698C32.0002 59.2698 13.0002 92.2699 10.0002 128.27C7.00018 164.27 6.00018 205.3 6.00018 205.3" stroke="#1E1818" stroke-width="3" stroke-miterlimit="10"/>
<path d="M554 345.3C554 345.3 511 335.3 493 330.3C475 325.3 453 313.3 453 313.3C453 313.3 450 235.3 450 205.3C450 175.3 450 95.2999 450 95.2999C450 95.2999 483 77.2999 502 72.2999C521 67.2999 551 61.2999 551 61.2999L570 65.2999C570 65.2999 613 87.2999 630 138.3C647 189.3 640 261.3 618 293.3C596 325.3 570 342.3 570 342.3L554 345.3Z" stroke="#1E1818" stroke-width="2" stroke-miterlimit="10"/>
<path d="M782.5 234.8L775.7 247.43C773.46 251.65 771.23 255.89 769.06 260.14C768.53 261.21 767.99 262.28 767.49 263.35C767.23 263.89 767.01 264.43 766.78 264.97C766.59 265.52 766.4 266.07 766.26 266.65C765.65 268.94 765.24 271.29 764.85 273.64C764.1 278.35 763.48 283.09 762.94 287.83V287.72L764.97 301.72L764.06 301.64C765.92 295.82 767.82 290.02 769.84 284.26C770.86 281.38 771.9 278.51 773 275.66C773.55 274.23 774.11 272.81 774.73 271.4C775.34 269.99 775.89 268.62 776.37 267.17C778.29 261.41 779.74 255.48 781.19 249.56C782.63 243.64 783.96 237.68 785.21 231.72L785.2 231.77C785.41 222.27 785.73 212.77 785.99 203.28C785.92 212.78 785.9 222.28 785.78 231.79V231.82L785.77 231.85C784.59 237.84 783.33 243.81 781.97 249.76C780.59 255.71 779.13 261.64 777.22 267.47C776.75 268.92 776.16 270.38 775.57 271.77C774.97 273.16 774.42 274.58 773.87 276C772.79 278.84 771.76 281.71 770.75 284.59C768.75 290.35 766.79 296.12 764.93 301.93L764.3 303.87L764.02 301.85L762.05 287.85L762.04 287.79L762.05 287.74C762.61 282.98 763.25 278.24 764.08 273.52C764.5 271.16 764.95 268.8 765.59 266.47C765.74 265.89 765.95 265.31 766.16 264.73C766.4 264.18 766.64 263.61 766.91 263.08C767.43 262 767.98 260.93 768.53 259.87C770.74 255.62 773.06 251.44 775.4 247.27L782.5 234.8Z" fill="#1E1818"/>
<path d="M782.5 172.8L775.42 160.32C773.08 156.15 770.76 151.97 768.55 147.72C768 146.66 767.45 145.59 766.93 144.51C766.66 143.98 766.42 143.41 766.18 142.86C765.97 142.28 765.76 141.71 765.61 141.12C764.96 138.79 764.52 136.43 764.1 134.07C763.27 129.35 762.63 124.6 762.07 119.85L762.06 119.8L762.07 119.74L764.04 105.74L764.32 103.72L764.95 105.67C766.82 111.47 768.78 117.25 770.77 123.01C771.77 125.89 772.8 128.76 773.89 131.6C774.43 133.02 774.99 134.44 775.59 135.83C776.18 137.22 776.77 138.68 777.24 140.13C779.15 145.96 780.61 151.89 781.99 157.84C783.35 163.79 784.61 169.76 785.79 175.75L785.8 175.78V175.8C785.92 184.97 785.94 194.14 786.01 203.31C785.75 194.15 785.44 184.98 785.22 175.82L785.23 175.87C783.98 169.9 782.64 163.95 781.21 158.03C779.76 152.11 778.31 146.18 776.39 140.42C775.91 138.97 775.36 137.6 774.75 136.19C774.14 134.78 773.57 133.36 773.02 131.93C771.92 129.08 770.88 126.21 769.86 123.33C767.83 117.57 765.93 111.77 764.07 105.95L764.98 105.87L762.95 119.87V119.76C763.49 124.5 764.11 129.24 764.86 133.95C765.25 136.3 765.66 138.66 766.27 140.94C766.41 141.52 766.6 142.07 766.79 142.62C767.02 143.16 767.24 143.71 767.5 144.24C768 145.32 768.54 146.39 769.07 147.45C771.24 151.71 773.47 155.94 775.71 160.16L782.5 172.8Z" fill="#1E1818"/>
<path d="M782 232.3C763.44 236.61 744.91 241.06 726.51 245.92C717.33 248.4 708.13 250.95 699.23 254.15L695.93 255.42C694.86 255.88 693.84 256.41 692.79 256.91C691.77 257.45 690.82 258.14 689.82 258.75C688.85 259.4 687.91 260.13 686.95 260.81C683.16 263.63 679.48 266.64 675.84 269.7C661.29 281.96 647.25 294.83 632.56 307.03L629.77 309.28C628.83 310.02 627.85 310.73 626.89 311.46C626.41 311.83 625.86 312.14 625.35 312.49C624.83 312.83 624.31 313.17 623.8 313.44C622.77 314.02 621.75 314.62 620.73 315.22C616.64 317.64 612.61 320.16 608.55 322.66C600.45 327.66 592.37 332.72 584.33 337.81L583.61 336.86C586.54 334.23 589.4 331.46 592.18 328.65C594.97 325.84 597.7 322.97 600.35 320.02C603.01 317.08 605.55 314.03 608.01 310.93C610.47 307.82 612.79 304.6 615 301.31C612.9 304.68 610.71 308 608.32 311.17C605.93 314.35 603.47 317.47 600.88 320.48C595.72 326.54 590.25 332.32 584.41 337.75L583.69 336.8C591.66 331.58 599.65 326.39 607.68 321.26C611.7 318.7 615.75 316.18 619.84 313.72C620.87 313.11 621.89 312.49 622.94 311.9C623.48 311.61 623.95 311.29 624.43 310.98C624.9 310.65 625.39 310.38 625.86 310.02C626.79 309.3 627.74 308.6 628.66 307.87L631.42 305.62C638.71 299.54 645.82 293.19 652.97 286.9C660.12 280.61 667.33 274.37 674.66 268.26C678.33 265.21 682.04 262.21 685.91 259.36C686.89 258.66 687.84 257.94 688.85 257.27C689.89 256.64 690.88 255.93 691.96 255.36C693.07 254.84 694.17 254.28 695.28 253.81L698.66 252.53C700.92 251.7 703.2 251.01 705.47 250.26L712.35 248.27L719.26 246.4L726.19 244.63C744.67 240 763.3 235.97 782 232.3Z" fill="#1E1818"/>
<path d="M782 173.3C763.3 169.63 744.67 165.6 726.17 160.98L719.24 159.21L712.33 157.34L705.45 155.35C703.18 154.6 700.89 153.91 698.64 153.08L695.26 151.8C694.14 151.33 693.04 150.76 691.94 150.25C690.86 149.68 689.87 148.97 688.83 148.34C687.82 147.67 686.87 146.95 685.89 146.25C682.03 143.4 678.31 140.4 674.64 137.35C667.31 131.24 660.1 125 652.95 118.71C645.8 112.42 638.69 106.07 631.4 99.9899L628.64 97.7399C627.71 97.0099 626.77 96.3099 625.84 95.5899C625.37 95.2299 624.89 94.9499 624.41 94.6299C623.94 94.3099 623.46 93.9999 622.92 93.7099C621.87 93.1199 620.85 92.4999 619.82 91.8899C615.73 89.4199 611.68 86.9099 607.66 84.3499C599.63 79.2199 591.64 74.0299 583.67 68.8099L584.39 67.8599C590.23 73.2899 595.7 79.0699 600.86 85.1299C603.45 88.1399 605.92 91.2699 608.3 94.4399C610.69 97.6099 612.88 100.94 614.98 104.3C612.77 101 610.44 97.7899 607.99 94.6799C605.52 91.5799 602.99 88.5299 600.33 85.5899C597.68 82.6399 594.95 79.7699 592.16 76.9599C589.38 74.1499 586.52 71.3899 583.59 68.7499L584.31 67.7999C592.36 72.8899 600.43 77.9499 608.53 82.9499C612.58 85.4399 616.62 87.9699 620.71 90.3899C621.73 90.9899 622.75 91.5999 623.78 92.1699C624.29 92.4399 624.81 92.7799 625.33 93.1199C625.84 93.4599 626.39 93.7799 626.87 94.1499C627.83 94.8799 628.8 95.5899 629.75 96.3299L632.54 98.5799C647.23 110.78 661.27 123.65 675.82 135.91C679.46 138.96 683.14 141.97 686.93 144.8C687.89 145.49 688.83 146.21 689.8 146.86C690.79 147.47 691.74 148.16 692.77 148.7C693.82 149.19 694.84 149.72 695.91 150.19L699.21 151.46C708.11 154.65 717.31 157.21 726.49 159.69C744.91 164.54 763.44 168.99 782 173.3Z" fill="#1E1818"/>
<path d="M758 301.3C746.08 302.35 734.18 303.68 722.31 305.22C710.44 306.73 698.6 308.47 686.84 310.7C680.97 311.86 675.12 313.08 669.35 314.61C663.58 316.15 657.86 317.9 652.17 319.75C640.8 323.46 629.56 327.58 618.35 331.76C612.73 333.82 607.12 335.91 601.47 337.89C600.05 338.38 598.63 338.86 597.2 339.31C596.48 339.53 595.76 339.75 595.02 339.93C594.65 340.02 594.28 340.11 593.88 340.17C593.68 340.2 593.48 340.22 593.24 340.22C593.11 340.21 592.99 340.22 592.79 340.12C592.68 340.07 592.53 339.95 592.47 339.76C592.41 339.57 592.45 339.44 592.48 339.35C592.62 339 592.78 338.93 592.93 338.76C593.08 338.6 593.24 338.46 593.39 338.35C593.7 338.12 594.01 337.87 594.32 337.67C594.95 337.25 595.59 336.84 596.23 336.45C597.51 335.66 598.82 334.92 600.12 334.18C610.6 328.35 621.33 323.03 632.09 317.78C642.86 312.55 653.71 307.48 664.65 302.62C675.62 297.84 686.67 293.17 697.99 289.29C686.72 293.33 675.75 298.14 664.85 303.07C653.94 307.98 643.12 313.1 632.38 318.38C621.65 323.68 610.95 329.06 600.53 334.91C599.23 335.65 597.94 336.4 596.68 337.18C596.04 337.57 595.42 337.97 594.81 338.38C594.49 338.58 594.22 338.81 593.93 339.02C593.77 339.13 593.66 339.24 593.55 339.35C593.45 339.44 593.28 339.61 593.3 339.62C593.3 339.62 593.32 339.58 593.29 339.48C593.25 339.38 593.19 339.33 593.16 339.32C593.12 339.31 593.2 339.33 593.25 339.33C593.39 339.33 593.56 339.31 593.73 339.29C594.07 339.24 594.43 339.15 594.79 339.06C595.5 338.88 596.21 338.66 596.92 338.44C598.34 337.99 599.75 337.5 601.16 337.01C606.79 335.01 612.39 332.89 618 330.81C629.24 326.68 640.51 322.61 651.91 318.95C657.61 317.12 663.35 315.39 669.15 313.88C674.95 312.37 680.83 311.17 686.71 310.04C710.3 305.72 734.13 303.13 758 301.3Z" fill="#1E1818"/>
<path d="M758 106.78C734.13 104.95 710.3 102.36 686.72 98.0399C680.84 96.9099 674.96 95.7099 669.16 94.1999C663.36 92.6899 657.62 90.9599 651.92 89.1299C640.51 85.4599 629.25 81.3898 618.01 77.2698C612.4 75.1898 606.8 73.0699 601.17 71.0699C599.76 70.5699 598.35 70.0899 596.93 69.6399C596.22 69.4199 595.51 69.1998 594.8 69.0198C594.45 68.9298 594.09 68.8499 593.74 68.7899C593.57 68.7599 593.4 68.7499 593.26 68.7499C593.2 68.7499 593.13 68.7699 593.17 68.7599C593.2 68.7499 593.27 68.6999 593.3 68.5999C593.33 68.4999 593.31 68.4598 593.31 68.4598C593.29 68.4698 593.46 68.6399 593.56 68.7299C593.67 68.8399 593.78 68.9499 593.94 69.0599C594.23 69.2699 594.5 69.4999 594.82 69.6999C595.43 70.1199 596.05 70.5199 596.69 70.8999C597.96 71.6799 599.25 72.4299 600.54 73.1699C610.96 79.0299 621.66 84.3999 632.39 89.6999C643.13 94.9799 653.95 100.09 664.86 105.01C675.76 109.94 686.73 114.75 698 118.79C686.67 114.9 675.63 110.24 664.66 105.46C653.71 100.61 642.87 95.5299 632.1 90.2999C621.34 85.0499 610.61 79.7199 600.13 73.8999C598.82 73.1599 597.52 72.4199 596.24 71.6299C595.6 71.2399 594.96 70.8399 594.33 70.4099C594.01 70.2099 593.71 69.9599 593.4 69.7299C593.25 69.6299 593.09 69.4799 592.94 69.3199C592.79 69.1499 592.63 69.0799 592.49 68.7299C592.46 68.6399 592.42 68.5099 592.48 68.3199C592.54 68.1299 592.69 68.0098 592.8 67.9598C593.01 67.8698 593.13 67.8799 593.25 67.8599C593.49 67.8599 593.69 67.8799 593.89 67.9099C594.28 67.9699 594.66 68.0599 595.03 68.1499C595.77 68.3399 596.49 68.5498 597.21 68.7698C598.65 69.2198 600.07 69.6999 601.48 70.1899C607.14 72.1699 612.75 74.2599 618.36 76.3199C629.58 80.4999 640.81 84.6099 652.18 88.3299C657.87 90.1799 663.58 91.9399 669.36 93.4699C675.13 94.9999 680.99 96.2299 686.85 97.3799C698.6 99.5999 710.45 101.35 722.32 102.86C734.18 104.4 746.08 105.73 758 106.78Z" fill="#1E1818"/>
<path d="M572 342.3L578.1 348.2L578.01 348.16C587.25 348.72 596.51 348.93 605.77 348.97C615.03 349.05 624.29 348.86 633.54 348.62C642.79 348.33 652.04 347.89 661.29 347.33C670.54 346.79 679.77 346.04 689 345.31C684.4 345.85 679.8 346.38 675.19 346.85C670.58 347.26 665.96 347.74 661.34 348.06L654.41 348.58L647.47 348.97C642.84 349.25 638.21 349.39 633.58 349.6C624.31 349.89 615.04 349.95 605.77 349.84C603.45 349.81 601.14 349.76 598.82 349.67C596.5 349.6 594.19 349.51 591.87 349.4C587.24 349.19 582.61 348.91 577.99 348.46L577.94 348.45L577.9 348.41L572 342.3Z" fill="#1E1818"/>
<path d="M763 304.3C763 304.3 773 302.3 773 305.3C773 308.3 761 330.3 752 336.3C743 342.3 722 348.3 716 350.3C710 352.3 679 357.3 679 357.3L690 345.3C690 345.3 720 338.3 734 327.3C748 316.3 763 304.3 763 304.3Z" stroke="#1E1818" stroke-width="2" stroke-miterlimit="10"/>
<path d="M730.5 341.8L731.5 338.8L737.5 336.8C737.5 336.8 759.5 308.8 761.5 310.8C763.5 312.8 745.5 336.8 739.5 339.8C733.5 342.8 730.5 341.8 730.5 341.8Z" stroke="#1E1818" stroke-miterlimit="10"/>
<path d="M728 343.3C724.86 344.44 721.68 345.47 718.49 346.49C715.29 347.48 712.08 348.41 708.82 349.18C705.56 349.96 702.27 350.59 698.98 351.17C695.68 351.75 692.39 352.29 689.07 352.78L688.06 352.93L688.58 352.05L691.57 347.04L691.68 346.86L691.89 346.81C698.78 345.25 705.61 343.37 712.36 341.26C715.73 340.19 719.09 339.06 722.37 337.75C725.66 336.46 728.91 335.04 732 333.29C729.02 335.22 725.8 336.75 722.55 338.18C719.29 339.6 715.95 340.8 712.59 341.96C709.24 343.13 705.83 344.14 702.41 345.1C698.99 346.06 695.56 346.96 692.1 347.77L692.42 347.54L689.41 352.53L688.93 351.8C692.23 351.33 695.53 350.82 698.82 350.27C702.11 349.7 705.4 349.13 708.66 348.46C711.92 347.78 715.14 346.9 718.36 346.04C721.59 345.19 724.8 344.25 728 343.3Z" fill="#1E1818"/>
<path d="M572 64.6499L577.9 58.5499L577.94 58.5099L577.99 58.4999C582.61 58.0499 587.23 57.7699 591.87 57.5599C594.19 57.4499 596.5 57.3599 598.82 57.2899C601.14 57.2099 603.45 57.1499 605.77 57.1199C615.04 56.9999 624.31 57.0699 633.58 57.3599C638.21 57.5699 642.84 57.6999 647.47 57.9899L654.41 58.3799L661.34 58.8999C665.96 59.2199 670.57 59.6899 675.19 60.1099C679.8 60.5799 684.4 61.1099 689 61.6499C679.76 60.9199 670.53 60.1699 661.29 59.6299C652.05 59.0599 642.8 58.6299 633.54 58.3399C624.29 58.0899 615.03 57.8999 605.77 57.9899C596.51 58.0299 587.25 58.2399 578.01 58.7999L578.1 58.7599L572 64.6499Z" fill="#1E1818"/>
<path d="M763 102.65C763 102.65 773 104.65 773 101.65C773 98.6499 761 76.6499 752 70.6499C743 64.6499 722 58.6499 716 56.6499C710 54.6499 679 49.6499 679 49.6499L690 61.6499C690 61.6499 720 68.6499 734 79.6499C748 90.6499 763 102.65 763 102.65Z" stroke="#1E1818" stroke-width="2" stroke-miterlimit="10"/>
<path d="M730.5 65.1498L731.5 68.1498L737.5 70.1498C737.5 70.1498 759.5 98.1498 761.5 96.1498C763.5 94.1498 745.5 70.1498 739.5 67.1498C733.5 64.1498 730.5 65.1498 730.5 65.1498Z" stroke="#1E1818" stroke-miterlimit="10"/>
<path d="M728 63.6499C724.8 62.6999 721.59 61.7599 718.37 60.8899C715.15 60.0299 711.92 59.1399 708.67 58.4699C705.41 57.7899 702.12 57.2199 698.83 56.6599C695.54 56.1099 692.24 55.5999 688.94 55.1299L689.42 54.3999L692.43 59.3899L692.11 59.1599C695.58 59.9699 699 60.8699 702.42 61.8299C705.84 62.7899 709.24 63.7999 712.6 64.9699C715.96 66.1299 719.3 67.3299 722.56 68.7499C725.8 70.1899 729.03 71.7099 732.01 73.6399C728.92 71.8999 725.68 70.4699 722.38 69.1799C719.1 67.8699 715.74 66.7399 712.37 65.6699C705.62 63.5599 698.79 61.6699 691.9 60.1199L691.69 60.0699L691.58 59.8899L688.59 54.8799L688.07 53.9999L689.08 54.1499C692.39 54.6499 695.69 55.1899 698.99 55.7599C702.29 56.3399 705.57 56.9699 708.83 57.7499C712.1 58.5199 715.31 59.4599 718.5 60.4399C721.68 61.4699 724.86 62.5099 728 63.6499Z" fill="#1E1818"/>
<path d="M791 206.3H799V200.3H791V206.3Z" fill="#1E1818"/>
<path d="M534.92 352.95C535.39 353.11 535.29 353.8 534.79 353.8C519.99 353.79 448.86 353.7 426.51 352.8C401.51 351.8 301.51 341.8 301.51 341.8L293.01 319.3C293.01 319.3 347.01 308.3 389.01 313.3C431.01 318.3 484.01 337.3 484.01 337.3C499.87 341.48 526.56 350.19 534.92 352.95Z" stroke="#1E1818" stroke-width="2" stroke-miterlimit="10"/>
<path d="M321.5 315.8L328.5 338.8C328.5 338.8 391.5 345.8 414.5 346.8C436.02 347.74 496.92 348.67 504.68 348.79C505.22 348.8 505.5 348.8 505.5 348.8C505.5 348.8 456.5 337.8 430.5 333.8C404.5 329.8 330.5 326.8 330.5 326.8L327.76 314.54" stroke="#1E1818" stroke-miterlimit="10"/>
<path d="M517 374.3C517 374.3 509 394.3 501 400.3C493 406.3 486 408.3 481 408.3C476 408.3 472 405.3 472 405.3C472 405.3 485 375.3 489 373.3" stroke="#1E1818" stroke-width="2" stroke-miterlimit="10"/>
<path d="M494.5 402.8C496.66 400.46 498.81 398.1 500.83 395.65C501.85 394.43 502.85 393.2 503.77 391.91C504.22 391.27 504.67 390.61 505.02 389.93C505.38 389.25 505.72 388.51 506.05 387.8C506.7 386.37 507.33 384.9 507.54 383.42C507.64 382.68 507.59 381.94 507.29 381.33C506.99 380.71 506.45 380.25 505.78 379.91C504.44 379.2 502.91 378.74 501.4 378.32C499.88 377.92 498.33 377.59 496.78 377.36C495.25 377.14 493.62 376.9 492.19 377.1C492 377.11 491.89 377.19 491.73 377.22C491.66 377.25 491.65 377.29 491.6 377.31L491.42 377.49C491.18 377.75 490.94 378.06 490.7 378.37C490.24 379 489.79 379.65 489.35 380.31C487.6 382.95 485.98 385.69 484.3 388.4L474.5 404.8C477.42 399.14 480.49 393.55 483.66 388.02C485.23 385.25 486.88 382.52 488.61 379.82C489.05 379.15 489.49 378.48 489.97 377.82C490.21 377.49 490.45 377.17 490.75 376.84C490.83 376.76 490.9 376.68 490.99 376.6C491.1 376.52 491.23 376.41 491.34 376.36C491.57 376.29 491.82 376.17 492.03 376.16C493.76 375.91 495.34 376.16 496.95 376.37C498.54 376.63 500.11 376.97 501.67 377.4C503.22 377.85 504.76 378.32 506.24 379.11C506.97 379.49 507.73 380.11 508.11 380.94C508.5 381.78 508.53 382.7 508.41 383.53C508.16 385.21 507.45 386.69 506.75 388.13C506.39 388.85 506.05 389.56 505.64 390.27C505.24 390.99 504.76 391.64 504.28 392.29C503.31 393.57 502.27 394.79 501.2 395.98C499.04 398.33 496.82 400.61 494.5 402.8Z" fill="#1E1818"/>
<path d="M497 374.3C497 374.3 511 380.3 516 375.3C521 370.3 524 362.3 524 362.3L507 361.3C507 361.3 506 372.3 502 372.3" stroke="#1E1818" stroke-miterlimit="10"/>
<path d="M535.44 56.1799C535.82 56.0599 535.73 55.4999 535.34 55.4999C521.87 55.5099 449.15 55.5899 426.5 56.4999C401.5 57.4999 301.5 67.4999 301.5 67.4999L293 89.9999C293 89.9999 347 101 389 95.9999C431 90.9999 484 71.9999 484 71.9999C500.22 67.7299 527.74 58.7199 535.44 56.1799Z" stroke="#1E1818" stroke-width="2" stroke-miterlimit="10"/>
<path d="M321.5 93.4999L328.5 70.4999C328.5 70.4999 391.5 63.4999 414.5 62.4999C436.02 61.5599 496.92 60.6299 504.68 60.5099C505.21 60.4999 505.5 60.4999 505.5 60.4999C505.5 60.4999 456.5 71.4999 430.5 75.4999C404.5 79.4999 330.5 82.4999 330.5 82.4999L327.76 94.7599" stroke="#1E1818" stroke-miterlimit="10"/>
<path d="M517 34.9999C517 34.9999 509 14.9999 501 8.99987C493 2.99987 486 0.999874 481 0.999874C476 0.999874 472 3.99987 472 3.99987C472 3.99987 485 33.9999 489 35.9999" stroke="#1E1818" stroke-width="2" stroke-miterlimit="10"/>
<path d="M494.5 6.4999C496.82 8.6899 499.04 10.9699 501.2 13.3299C502.26 14.5199 503.3 15.7399 504.28 17.0199C504.76 17.6599 505.24 18.3099 505.64 19.0399C506.05 19.7499 506.39 20.4599 506.75 21.1799C507.45 22.6199 508.15 24.0999 508.41 25.7799C508.52 26.6099 508.5 27.5299 508.11 28.3699C507.73 29.2099 506.97 29.8299 506.24 30.1999C504.76 30.9899 503.22 31.4599 501.67 31.9099C500.12 32.3399 498.54 32.6799 496.95 32.9399C495.34 33.1499 493.77 33.3999 492.03 33.1499C491.82 33.1399 491.57 33.0199 491.34 32.9499C491.22 32.8999 491.1 32.7899 490.99 32.7099C490.9 32.6199 490.83 32.5499 490.75 32.4699C490.45 32.1499 490.21 31.8199 489.97 31.4899C489.49 30.8299 489.05 30.1699 488.61 29.4899C486.88 26.7999 485.23 24.0699 483.66 21.2899C480.49 15.7599 477.43 10.1699 474.5 4.50991L484.32 20.8999C485.99 23.6099 487.62 26.3499 489.37 28.9899C489.81 29.6499 490.25 30.2999 490.72 30.9299C490.95 31.2399 491.19 31.5499 491.44 31.8099L491.62 31.9899C491.67 32.0099 491.69 32.0599 491.75 32.0799C491.91 32.1099 492.01 32.1899 492.21 32.1999C493.64 32.3999 495.27 32.1599 496.8 31.9399C498.35 31.6999 499.9 31.3799 501.42 30.9799C502.93 30.5599 504.46 30.0999 505.8 29.3899C506.48 29.0499 507.01 28.5899 507.31 27.9699C507.61 27.3499 507.65 26.6199 507.56 25.8799C507.34 24.3999 506.71 22.9299 506.07 21.4999C505.74 20.7899 505.4 20.0499 505.04 19.3699C504.69 18.6899 504.24 18.0399 503.79 17.3899C502.87 16.0999 501.87 14.8699 500.85 13.6499C498.81 11.1899 496.66 8.8399 494.5 6.4999Z" fill="#1E1818"/>
<path d="M497 34.9999C497 34.9999 511 28.9999 516 33.9999C521 38.9999 524 46.9999 524 46.9999L507 47.9999C507 47.9999 506 36.9999 502 36.9999" stroke="#1E1818" stroke-miterlimit="10"/>
<path d="M535 352.3C535 352.3 544 359.3 540 372.3" stroke="#1E1818" stroke-miterlimit="10"/>
<path d="M535 56.2999C535 56.2999 544 49.2999 540 36.2999" stroke="#1E1818" stroke-miterlimit="10"/>
<path d="M557.5 363.8C553.082 363.8 549.5 365.591 549.5 367.8C549.5 370.009 553.082 371.8 557.5 371.8C561.919 371.8 565.5 370.009 565.5 367.8C565.5 365.591 561.919 363.8 557.5 363.8Z" stroke="#1E1818" stroke-width="2" stroke-miterlimit="10"/>
<path d="M424.5 370.8C396.19 368.32 367.9 365.52 339.72 361.71C332.69 360.72 325.61 359.65 318.67 358.05C311.74 356.52 304.79 355.08 297.82 353.74C290.85 352.4 283.87 351.14 276.86 350.06C273.36 349.53 269.85 349.01 266.34 348.61C262.83 348.19 259.31 347.86 255.81 347.75C254.06 347.69 252.34 347.71 250.64 347.89C248.93 348.1 247.2 348.43 245.49 348.8C242.05 349.55 238.64 350.47 235.26 351.49C228.51 353.55 221.82 355.93 215.49 358.99C212.37 360.54 209.21 362.24 206.79 364.55C205.62 365.69 204.74 367.16 205.35 368.24C205.95 369.45 207.55 370.11 209.17 370.62C212.46 371.57 216 371.98 219.5 372.32C223.01 372.65 226.55 372.84 230.09 372.97C244.25 373.42 258.46 372.98 272.64 372.23C279.73 371.85 286.82 371.4 293.87 370.63C295.62 370.41 297.42 370.24 299.08 369.79C299.3 369.72 299.39 369.66 299.47 369.52C299.53 369.42 299.44 369.27 299.32 369.13C299.05 368.85 298.66 368.63 298.27 368.44C297.49 368.05 296.65 367.75 295.82 367.47C292.46 366.36 288.99 365.55 285.52 364.82C289.01 365.46 292.5 366.16 295.92 367.18C296.77 367.45 297.62 367.73 298.44 368.12C298.85 368.32 299.26 368.52 299.61 368.87C299.76 369.05 299.98 369.33 299.85 369.67C299.75 369.95 299.43 370.13 299.23 370.19C297.47 370.7 295.71 370.9 293.95 371.16C286.89 372.08 279.81 372.68 272.72 373.21C258.53 374.16 244.32 374.78 230.07 374.51C226.51 374.43 222.94 374.29 219.38 373.99C215.82 373.67 212.25 373.28 208.7 372.28C207.82 372 206.93 371.7 206.06 371.22C205.18 370.74 204.34 370.03 203.81 369.03C203.56 368.51 203.42 367.91 203.43 367.33C203.44 366.74 203.61 366.2 203.82 365.71C204.27 364.75 204.9 363.98 205.57 363.31C206.92 361.97 208.44 360.94 209.97 359.97C211.52 359.02 213.1 358.16 214.72 357.37C221.18 354.22 227.91 351.79 234.73 349.68C238.15 348.64 241.59 347.69 245.1 346.91C246.85 346.52 248.62 346.18 250.43 345.94C252.26 345.74 254.1 345.7 255.9 345.77C259.5 345.9 263.06 346.25 266.6 346.69C270.14 347.11 273.67 347.64 277.18 348.19C284.21 349.31 291.21 350.59 298.19 351.97C305.17 353.35 312.13 354.82 319.06 356.38C325.97 357.98 332.94 359.12 339.96 360.21C354 362.31 368.09 364.09 382.2 365.81C396.27 367.55 410.38 369.16 424.5 370.8Z" fill="#1E1818"/>
<path d="M352 369.3C352 369.3 342 370.3 336 370.3C330 370.3 326 370.3 326 370.3L325 366.3C325 366.3 332 365.3 341 366.3C350 367.3 352 369.3 352 369.3Z" stroke="#1E1818" stroke-miterlimit="10"/>
<path d="M312 373.3C312 373.3 309 366.3 311 362.3C313 358.3 318.44 357.31 318.44 357.31L328 344.3" stroke="#1E1818" stroke-miterlimit="10"/>
<path d="M283 350.3C277.16 353.78 271.26 357.17 265.35 360.54C259.44 363.92 253.49 367.21 247.57 370.55C247.26 370.75 246.67 370.97 246.26 371.02C245.81 371.12 245.39 371.16 244.95 371.22C244.09 371.31 243.23 371.35 242.37 371.39C240.66 371.44 238.95 371.42 237.24 371.36C233.83 371.23 230.42 370.97 227.04 370.41C220.28 369.37 213.69 367.02 208 363.29C210.94 365 214.07 366.34 217.29 367.4C220.5 368.48 223.8 369.22 227.16 369.65C230.51 370.08 233.89 370.36 237.27 370.45C238.96 370.49 240.65 370.5 242.34 370.43C243.18 370.39 244.02 370.34 244.85 370.25C245.26 370.19 245.68 370.15 246.06 370.06C246.49 369.98 246.72 369.9 247.13 369.66C253.09 366.4 259.02 363.09 265 359.86C270.97 356.64 276.96 353.42 283 350.3Z" fill="#1E1818"/>
<path d="M424.5 37.7999C410.38 39.4399 396.27 41.0499 382.17 42.8099C368.07 44.5199 353.97 46.2999 339.93 48.4099C332.91 49.4999 325.94 50.6399 319.03 52.2399C312.09 53.7999 305.13 55.2699 298.16 56.6499C291.18 58.0199 284.18 59.3099 277.15 60.4299C273.63 60.9799 270.11 61.5099 266.57 61.9299C263.03 62.3699 259.47 62.7199 255.87 62.8499C254.08 62.9199 252.23 62.8799 250.4 62.6799C248.58 62.4499 246.82 62.0999 245.07 61.7099C241.57 60.9299 238.12 59.9799 234.7 58.9399C227.88 56.8299 221.15 54.3999 214.69 51.2499C213.08 50.4599 211.49 49.5999 209.94 48.6499C208.4 47.6899 206.89 46.6499 205.54 45.3099C204.87 44.6299 204.24 43.8699 203.79 42.9099C203.58 42.4199 203.41 41.8799 203.4 41.2899C203.39 40.6999 203.52 40.1099 203.78 39.5899C204.31 38.5899 205.15 37.8799 206.03 37.3999C206.9 36.9299 207.79 36.6199 208.67 36.3399C212.22 35.3399 215.78 34.9499 219.35 34.6299C222.92 34.3399 226.48 34.1899 230.04 34.1099C244.29 33.8399 258.51 34.4599 272.69 35.4099C279.78 35.9399 286.87 36.5399 293.92 37.4599C295.69 37.7199 297.44 37.9099 299.2 38.4299C299.41 38.4899 299.72 38.6599 299.82 38.9499C299.95 39.2899 299.73 39.5699 299.58 39.7499C299.22 40.0999 298.81 40.3099 298.41 40.4999C297.59 40.8899 296.74 41.1699 295.89 41.4399C292.47 42.4599 288.99 43.1699 285.49 43.7999C288.96 43.0599 292.43 42.2599 295.79 41.1499C296.63 40.8599 297.46 40.5699 298.24 40.1799C298.63 39.9899 299.02 39.7699 299.29 39.4899C299.41 39.3499 299.5 39.1999 299.44 39.0999C299.37 38.9599 299.27 38.8999 299.05 38.8299C297.39 38.3799 295.59 38.2099 293.84 37.9899C286.79 37.2199 279.7 36.7799 272.61 36.3899C258.44 35.6299 244.23 35.1999 230.06 35.6499C226.52 35.7699 222.99 35.9599 219.47 36.2999C215.97 36.6399 212.44 37.0499 209.14 37.9999C207.52 38.4999 205.92 39.1699 205.32 40.3799C204.71 41.4599 205.59 42.9199 206.76 44.0699C209.18 46.3799 212.34 48.0699 215.46 49.6299C221.79 52.6899 228.47 55.0699 235.23 57.1299C238.61 58.1499 242.02 59.0699 245.46 59.8199C247.18 60.1899 248.9 60.5199 250.61 60.7299C252.31 60.9099 254.03 60.9299 255.78 60.8699C259.28 60.7599 262.8 60.4299 266.31 60.0099C269.82 59.6099 273.33 59.0899 276.83 58.5599C283.83 57.4799 290.82 56.2199 297.79 54.8799C304.76 53.5299 311.71 52.0999 318.64 50.5699C325.58 48.9699 332.66 47.8999 339.69 46.9099C367.9 43.0799 396.19 40.2799 424.5 37.7999Z" fill="#1E1818"/>
<path d="M352 39.2999C352 39.2999 342 38.2999 336 38.2999C330 38.2999 326 38.2999 326 38.2999L325 42.2999C325 42.2999 332 43.2999 341 42.2999C350 41.2999 352 39.2999 352 39.2999Z" stroke="#1E1818" stroke-miterlimit="10"/>
<path d="M312 35.2999C312 35.2999 309 42.2999 311 46.2999C313 50.2999 318.44 51.2899 318.44 51.2899L328 64.2999" stroke="#1E1818" stroke-miterlimit="10"/>
<path d="M283 58.2999C276.96 55.1799 270.97 51.9599 264.99 48.7299C259.01 45.4999 253.08 42.1999 247.12 38.9299C246.71 38.6899 246.48 38.6099 246.05 38.5299C245.67 38.4399 245.25 38.3999 244.84 38.3399C244.01 38.2499 243.17 38.1999 242.33 38.1599C240.65 38.0899 238.95 38.0999 237.26 38.1399C233.88 38.2199 230.5 38.5099 227.15 38.9399C223.8 39.3699 220.49 40.1099 217.28 41.1899C214.07 42.2499 210.93 43.5899 207.99 45.2999C213.69 41.5699 220.28 39.2199 227.03 38.1799C230.4 37.6199 233.81 37.3699 237.23 37.2299C238.94 37.1699 240.65 37.1499 242.36 37.1999C243.22 37.2299 244.08 37.2799 244.94 37.3699C245.38 37.4299 245.8 37.4599 246.25 37.5699C246.66 37.6299 247.25 37.8399 247.56 38.0399C253.49 41.3799 259.44 44.6799 265.34 48.0499C271.26 51.4299 277.16 54.8199 283 58.2999Z" fill="#1E1818"/>
<path d="M301 342.3C294.06 342.07 287.12 341.69 280.18 341.34C273.24 340.95 266.32 340.48 259.38 340.02L248.99 339.26L238.61 338.38L228.23 337.43L217.86 336.39C210.95 335.66 204.05 334.77 197.16 333.77C193.72 333.24 190.28 332.75 186.85 332.08C185.14 331.76 183.42 331.48 181.71 331.05L179.15 330.45L177.87 330.15C177.45 330.03 177.03 329.89 176.61 329.76C174.94 329.19 173.23 328.74 171.64 327.99L169.21 326.95C168.41 326.59 167.65 326.14 166.86 325.74C163.73 324.13 160.84 322.06 158.19 319.75C155.52 317.45 153.2 314.76 151.26 311.84C149.32 308.91 147.73 305.76 146.79 302.36L146.76 302.26L146.82 302.18L152 295.31L147.18 302.44L147.21 302.26C148.26 305.52 149.96 308.58 151.97 311.36C154 314.12 156.3 316.7 158.96 318.87C164.19 323.31 170.52 326.29 177.09 328.15C177.5 328.27 177.9 328.41 178.32 328.52L179.58 328.8L182.1 329.37C183.77 329.78 185.48 330.04 187.18 330.35C190.57 330.99 194.01 331.45 197.44 331.95C200.87 332.45 204.32 332.83 207.75 333.27L218.08 334.46L228.43 335.58L238.79 336.62L259.52 338.57L301 342.3Z" fill="#1E1818"/>
<path d="M301 66.2999L259.51 70.0599L238.78 72.0099L228.42 73.0499L218.07 74.1699L207.74 75.3599C204.3 75.7999 200.86 76.1899 197.43 76.6799C194 77.1799 190.57 77.6399 187.17 78.2799C185.47 78.5799 183.76 78.8399 182.09 79.2599L179.57 79.8299L178.31 80.1099C177.9 80.2199 177.49 80.3599 177.08 80.4799C170.51 82.3299 164.18 85.3199 158.95 89.7599C156.29 91.9299 153.99 94.5098 151.96 97.2698C149.95 100.04 148.25 103.11 147.2 106.37L147.17 106.19L151.99 113.32L146.81 106.45L146.75 106.37L146.78 106.27C147.72 102.87 149.32 99.7199 151.25 96.7899C153.19 93.8699 155.51 91.1799 158.18 88.8799C160.83 86.5699 163.72 84.4999 166.85 82.8899C167.63 82.4899 168.39 82.0399 169.2 81.6799L171.63 80.6399C173.23 79.8899 174.94 79.4399 176.6 78.8699C177.02 78.7399 177.44 78.5999 177.86 78.4799L179.14 78.1799L181.7 77.5799C183.4 77.1399 185.12 76.8699 186.84 76.5499C190.27 75.8799 193.71 75.3899 197.15 74.8599C204.04 73.8599 210.93 72.9699 217.85 72.2399L228.22 71.1999L238.6 70.2499L248.98 69.3699L259.37 68.6099C266.3 68.1499 273.23 67.6699 280.17 67.2899C287.12 66.9099 294.06 66.5299 301 66.2999Z" fill="#1E1818"/>
<path d="M293 319.3C293 319.3 292 292.3 293 271.3C294 250.3 293 156.3 293 143.3C293 130.3 290 97.2999 293 90.2999" stroke="#1E1818" stroke-miterlimit="10"/>
<path d="M293 293.3C293 293.3 187 302.3 169 302.3C151 302.3 66.0002 286.3 60.0002 272.3C54.0002 258.3 51.0002 202.3 51.0002 202.3" stroke="#1E1818" stroke-width="2" stroke-miterlimit="10"/>
<path d="M293 111.3C293 111.3 187 102.3 169 102.3C151 102.3 66.0002 118.3 60.0002 132.3C54.0002 146.3 51.0002 202.3 51.0002 202.3" stroke="#1E1818" stroke-width="2" stroke-miterlimit="10"/>
<path d="M292.52 269.86C292.52 269.86 178.5 295.8 166.5 295.8C154.5 295.8 74.5002 280.8 66.5002 273.8C58.5002 266.8 57.6302 262.97 57.6302 262.97" stroke="#1E1818" stroke-miterlimit="10"/>
<path d="M292.52 137.91C292.52 137.91 178.5 111.97 166.5 111.97C154.5 111.97 74.5002 126.97 66.5002 133.97C58.5002 140.97 57.6302 144.8 57.6302 144.8" stroke="#1E1818" stroke-miterlimit="10"/>
<path d="M156.52 294.8C156.52 294.8 169 286.3 174 275.3C179 264.3 180 251.3 180 251.3L182 204.3" stroke="#1E1818" stroke-miterlimit="10"/>
<path d="M156.52 113.3C156.52 113.3 169 121.8 174 132.8C179 143.8 180 156.8 180 156.8L182 204.3" stroke="#1E1818" stroke-miterlimit="10"/>
<path d="M185 266.3L209.93 260.49L234.88 254.75L259.84 249.08L284.81 243.45L285.04 245.15L228.29 248.39L171.53 251.41L114.76 254.29C105.3 254.84 95.8502 255.36 86.3902 255.84L58.0002 257.29L86.3402 255.14C95.7902 254.42 105.24 253.74 114.69 253.09C133.6 251.82 152.51 250.7 171.43 249.63L228.18 246.42L284.94 243.43L285.17 245.13L260.14 250.5L235.1 255.83L210.05 261.09L185 266.3Z" fill="#1E1818"/>
<path d="M185 141.3L210.07 146.49L235.12 151.75L260.16 157.08L285.19 162.45L284.96 164.15L228.2 161.16L171.45 157.95C152.53 156.88 133.62 155.76 114.71 154.49C105.26 153.84 95.8002 153.16 86.3602 152.44L58.0202 150.29L86.4102 151.74C95.8702 152.22 105.33 152.74 114.78 153.29L171.55 156.17L228.31 159.19L285.06 162.43L284.83 164.13L259.86 158.5L234.9 152.83L209.95 147.09L185 141.3Z" fill="#1E1818"/>
<path d="M178 263.3C170.35 264.26 162.7 265.13 155.05 265.9L132.08 268.15C128.25 268.5 124.42 268.87 120.6 269.27C118.69 269.46 116.78 269.66 114.88 269.89C112.99 270.13 111.05 270.34 109.26 270.71C109.06 270.76 108.79 270.81 108.65 270.86C108.59 270.89 108.52 270.91 108.45 270.93C108.37 270.96 108.27 271.05 108.18 271.1C107.8 271.35 107.43 271.63 107.07 271.92C106.34 272.5 105.67 273.15 104.99 273.81C103.66 275.15 102.45 276.61 101.32 278.15C100.18 279.68 99.1302 281.28 98.1502 282.93C97.1902 284.59 96.2902 286.29 95.4202 288.01C96.7402 284.39 98.4402 280.9 100.51 277.6C101.56 275.96 102.73 274.39 104.03 272.92C104.69 272.19 105.38 271.48 106.13 270.83C106.51 270.5 106.89 270.18 107.3 269.89C107.41 269.81 107.49 269.74 107.63 269.66C107.78 269.58 107.94 269.51 108.1 269.44C108.4 269.32 108.61 269.28 108.88 269.2C110.84 268.71 112.73 268.44 114.65 268.16C116.56 267.88 118.48 267.64 120.39 267.4C124.22 266.95 128.05 266.56 131.89 266.17C139.56 265.46 147.24 264.84 154.92 264.36C162.6 263.85 170.3 263.49 178 263.3Z" fill="#1E1818"/>
<path d="M178 140.99C170.3 140.8 162.6 140.44 154.92 139.94C147.23 139.46 139.56 138.84 131.89 138.13C128.06 137.75 124.22 137.36 120.39 136.9C118.48 136.66 116.56 136.42 114.65 136.14C112.73 135.86 110.84 135.59 108.88 135.1C108.62 135.02 108.41 134.98 108.1 134.86C107.94 134.79 107.79 134.72 107.63 134.64C107.49 134.56 107.42 134.49 107.3 134.41C106.89 134.11 106.5 133.79 106.13 133.47C105.37 132.82 104.69 132.11 104.03 131.38C102.73 129.91 101.56 128.34 100.51 126.7C98.4402 123.41 96.7302 119.91 95.4202 116.29C96.2902 118.01 97.1902 119.71 98.1502 121.37C99.1302 123.02 100.18 124.62 101.32 126.15C102.45 127.68 103.66 129.15 104.99 130.49C105.66 131.15 106.34 131.8 107.07 132.38C107.43 132.67 107.8 132.95 108.18 133.2C108.27 133.26 108.38 133.34 108.45 133.37C108.52 133.39 108.58 133.41 108.65 133.44C108.79 133.49 109.06 133.54 109.26 133.59C111.05 133.96 112.99 134.17 114.88 134.41C116.78 134.64 118.69 134.83 120.6 135.03C124.42 135.42 128.25 135.8 132.08 136.15L155.05 138.4C162.7 139.16 170.35 140.03 178 140.99Z" fill="#1E1818"/>
<path d="M56.7802 258.37L64.9802 246.75C65.6502 245.8 66.0102 244.67 66.0102 243.51L66.0102 170.94C66.0102 169.19 65.6602 167.47 64.9802 165.86L58.0102 149.3" stroke="#1E1818" stroke-miterlimit="10"/>
<path d="M78.0002 222.3H83.0002V187.3H78.0002V222.3Z" stroke="#1E1818" stroke-miterlimit="10"/>
<path d="M9.50018 168.3C7.56719 168.3 6.00018 184.641 6.00018 204.8C6.00018 224.958 7.56719 241.3 9.50018 241.3C11.4332 241.3 13.0002 224.958 13.0002 204.8C13.0002 184.641 11.4332 168.3 9.50018 168.3Z" stroke="#1E1818" stroke-miterlimit="10"/>
<path d="M95.9302 289.27C90.5102 301.23 84.7402 313.02 78.8302 324.73C75.8802 330.59 72.8702 336.42 69.8402 342.24C66.7902 348.05 63.7202 353.84 60.5802 359.61L60.6302 359.47C60.0702 361.09 59.1002 362.32 57.9302 363.38C56.7602 364.43 55.3602 365.14 53.9202 365.64C52.4802 366.17 50.9601 366.35 49.4701 366.49C48.7201 366.51 47.9701 366.52 47.2201 366.5L44.9902 366.31L47.2201 366.28L49.4302 366.08C50.8802 365.83 52.3302 365.55 53.6502 364.94C54.9802 364.37 56.2002 363.59 57.2102 362.6C58.2002 361.63 59.0202 360.37 59.3702 359.15L59.3902 359.08L59.4202 359.01C62.2702 353.1 65.1802 347.22 68.1302 341.36C71.0902 335.51 74.0702 329.67 77.1102 323.85C83.1702 312.21 89.3702 300.65 95.9302 289.27Z" fill="#1E1818"/>
<path d="M68.0002 345.3C64.9802 345.58 61.9402 345.64 58.8902 345.53C55.8502 345.41 52.8002 345.14 49.7602 344.47C48.2202 344.14 46.7902 343.65 45.3302 343.19C43.8802 342.72 42.4502 342.2 41.0302 341.65C38.1902 340.56 35.4102 339.36 32.6602 338.05L33.7902 337.31C33.7202 339.48 33.6202 341.64 33.4902 343.81C33.3502 345.98 33.2102 348.14 32.9802 350.31C32.7502 348.14 32.6101 345.98 32.4701 343.81C32.3501 341.64 32.2502 339.48 32.1702 337.31L32.1302 336.1L33.3002 336.57C36.0802 337.68 38.9002 338.76 41.7102 339.81C44.5302 340.82 47.3602 341.88 50.1902 342.65C53.0302 343.39 56.0002 343.85 58.9802 344.25C61.9802 344.65 64.9802 344.97 68.0002 345.3Z" fill="#1E1818"/>
<path d="M43.5002 365.8C43.5002 365.8 36.5002 353.8 36.5002 351.8C36.5002 349.8 39.5002 340.8 39.5002 340.8" stroke="#1E1818" stroke-miterlimit="10"/>
<path d="M61.0002 355.3C59.8202 357.42 58.0202 359.17 55.9802 360.52C53.9202 361.86 51.6102 362.83 49.1402 363.18C46.6802 363.52 44.2002 363.29 41.8302 362.75C39.4602 362.21 37.1502 361.42 35.0102 360.3C36.1602 360.67 37.3102 361.01 38.4802 361.28C39.6402 361.58 40.8102 361.82 41.9802 362C44.3202 362.35 46.7002 362.54 49.0102 362.2C50.1702 362.07 51.2802 361.74 52.3902 361.35C53.5002 360.97 54.5502 360.44 55.5902 359.88C56.6202 359.31 57.5902 358.63 58.5002 357.86C59.4102 357.09 60.2502 356.24 61.0002 355.3Z" fill="#1E1818"/>
<path d="M65.0302 349.52C64.1502 350.39 63.1202 351.1 62.0802 351.78C61.0102 352.4 59.9002 352.98 58.7402 353.45C56.4302 354.4 53.9702 355.01 51.4702 355.2C50.8502 355.28 50.2202 355.24 49.5902 355.27C48.9602 355.29 48.3402 355.3 47.7102 355.23L45.8402 355.07C45.2202 354.96 44.6102 354.84 44.0002 354.72L43.0802 354.54C42.7802 354.47 42.4802 354.37 42.1802 354.28L40.4002 353.75C39.2402 353.32 38.1102 352.8 36.9902 352.3C38.1902 352.6 39.3502 353.01 40.5402 353.28L42.3302 353.67C42.6302 353.73 42.9202 353.81 43.2202 353.86L44.1302 353.97C44.7302 354.04 45.3402 354.12 45.9402 354.21L47.7602 354.29C48.3602 354.34 48.9702 354.33 49.5702 354.3C50.1702 354.27 50.7802 354.3 51.3802 354.21C53.7902 354.05 56.1602 353.49 58.4702 352.73C60.7702 351.96 62.9902 350.91 65.0302 349.52Z" fill="#1E1818"/>
<path d="M97.4302 120.83C93.3002 113.64 89.2802 106.39 85.3802 99.0799C83.4102 95.4399 81.5002 91.7599 79.5602 88.0999L73.8602 77.0599C70.1002 69.6799 66.3602 62.2899 62.7402 54.8299L61.3802 52.0399L61.0402 51.3399C60.9802 51.2099 60.9402 51.1098 60.8802 51.0198L60.6902 50.7098C60.4302 50.2998 60.1302 49.8999 59.8202 49.5099C58.5602 47.9599 57.0002 46.6399 55.2802 45.5899C51.8202 43.4498 47.6202 42.6699 43.4902 42.7899C47.5902 42.2699 51.9402 42.8399 55.7102 44.8199C57.6002 45.7999 59.3002 47.1299 60.7302 48.7299C61.0902 49.1299 61.4302 49.5499 61.7402 49.9999L61.9701 50.3499C62.0601 50.4799 62.1202 50.6199 62.1802 50.7199L62.5502 51.3998L64.0202 54.1399C67.9602 61.4299 71.7902 68.7799 75.5902 76.1399L81.2302 87.2199C83.0702 90.9299 84.9502 94.6299 86.7602 98.3599C90.4502 105.78 94.0002 113.28 97.4302 120.83Z" fill="#1E1818"/>
<path d="M69.5002 64.7999C66.4802 65.1299 63.4802 65.4499 60.5002 65.8599C57.5302 66.2599 54.5502 66.7099 51.7102 67.4599C48.8802 68.2299 46.0402 69.2899 43.2302 70.2999C40.4202 71.3499 37.6002 72.4299 34.8202 73.5399L33.8502 73.9299L33.7102 72.9599C33.5402 71.8299 33.4402 70.7499 33.3502 69.6499C33.2802 68.5499 33.2401 67.4499 33.2201 66.3599C33.2101 65.2599 33.2202 64.1699 33.2702 63.0699C33.3102 61.9799 33.4002 60.8799 33.5002 59.7999C33.7402 61.9799 33.9502 64.1399 34.2402 66.2799C34.3802 67.3499 34.5302 68.4199 34.7102 69.4899C34.8802 70.5499 35.0602 71.6299 35.2902 72.6399L34.1702 72.0599C36.9202 70.7499 39.7002 69.5399 42.5402 68.4599C43.9602 67.9099 45.3902 67.3799 46.8402 66.9199C48.3002 66.4599 49.7302 65.9699 51.2702 65.6399C54.3102 64.9699 57.3502 64.6999 60.4002 64.5799C63.4402 64.4599 66.4802 64.5199 69.5002 64.7999Z" fill="#1E1818"/>
<path d="M45.0002 41.2999C45.0002 41.2999 38.0002 56.2999 38.0002 58.2999C38.0002 60.2999 41.0002 69.2999 41.0002 69.2999" stroke="#1E1818" stroke-miterlimit="10"/>
<path d="M62.5002 54.7999C61.6802 53.7599 60.7402 52.8499 59.7202 52.0399C58.7202 51.2099 57.6302 50.4999 56.4802 49.9099C55.3402 49.2999 54.1502 48.8099 52.9202 48.4399C51.7102 48.0199 50.4602 47.8799 49.1802 47.8599C46.6202 47.8299 44.0402 48.3199 41.5002 48.9299C38.9702 49.5699 36.4702 50.3799 33.9902 51.2999C36.3102 50.0299 38.7602 49.0198 41.3002 48.2198C43.8302 47.4198 46.4702 46.8699 49.1902 46.8699C50.5402 46.8599 51.9402 47.0698 53.2102 47.5198C54.5002 47.9298 55.7302 48.4999 56.8802 49.1999C59.1702 50.6099 61.2102 52.4799 62.5002 54.7999Z" fill="#1E1818"/>
<path d="M66.5302 60.5799C64.4902 59.1899 62.2702 58.1399 59.9702 57.3599C57.6702 56.6099 55.3002 56.0499 52.8802 55.8799C52.2802 55.7899 51.6702 55.8199 51.0702 55.7899C50.4702 55.7599 49.8602 55.7499 49.2602 55.7999L47.4402 55.8799C46.8402 55.9699 46.2402 56.0499 45.6302 56.1199L44.7202 56.2299C44.4202 56.2799 44.1202 56.3599 43.8302 56.4199L42.0402 56.8099C40.8502 57.0799 39.6902 57.4999 38.4902 57.7899C39.6102 57.2799 40.7402 56.7699 41.9002 56.3399L43.6802 55.8099C43.9802 55.7199 44.2702 55.6199 44.5802 55.5499L45.5002 55.3699C46.1102 55.2499 46.7202 55.1299 47.3402 55.0199L49.2102 54.8599C49.8302 54.7899 50.4602 54.7999 51.0902 54.8199C51.7202 54.8499 52.3402 54.8099 52.9702 54.8899C55.4702 55.0899 57.9302 55.6999 60.2402 56.6399C61.4002 57.1099 62.5102 57.6899 63.5802 58.3099C64.6202 58.9999 65.6502 59.6999 66.5302 60.5799Z" fill="#1E1818"/>
<path d="M33.0002 337.3C33.0002 337.3 10.0002 288.3 9.00018 245.3" stroke="#1E1818" stroke-miterlimit="10"/>
<path d="M34.0002 73.2999C34.0002 73.2999 10.0002 123.3 9.00018 166.3" stroke="#1E1818" stroke-miterlimit="10"/>
<path d="M233 374.3C225.88 374.3 218.76 374.11 211.63 373.98C204.51 373.78 197.39 373.52 190.28 373.26C176.05 372.7 161.83 371.83 147.61 370.92C140.51 370.35 133.4 369.81 126.31 369.14C122.76 368.82 119.21 368.51 115.67 368.12C112.13 367.75 108.58 367.38 105.04 366.95C90.9102 365.17 76.7102 363.26 63.0002 359.31L68.2302 360.4C69.9702 360.78 71.7002 361.17 73.4702 361.41L78.7402 362.24L81.3702 362.65L84.0202 362.98C87.5502 363.42 91.0702 363.93 94.6002 364.31L105.21 365.42C119.37 366.77 133.55 367.98 147.75 368.93C161.94 370.01 176.15 370.84 190.36 371.74L233 374.3Z" fill="#1E1818"/>
<path d="M233 34.2999L190.36 36.8699C176.15 37.7599 161.94 38.5999 147.75 39.6799C133.55 40.6299 119.37 41.8399 105.21 43.1899L94.6002 44.2999C91.0702 44.6899 87.5502 45.1999 84.0202 45.6299L81.3702 45.9598L78.7402 46.3699L73.4702 47.1999C71.7002 47.4399 69.9702 47.8298 68.2302 48.2098L63.0002 49.2999C76.7102 45.3399 90.9202 43.4399 105.04 41.6599C108.58 41.2199 112.12 40.8499 115.67 40.4899C119.21 40.0999 122.76 39.7898 126.31 39.4698C133.4 38.7998 140.51 38.2599 147.61 37.6899C161.83 36.7799 176.05 35.9099 190.28 35.3499C197.4 35.0899 204.52 34.8399 211.63 34.6299C218.76 34.4899 225.88 34.2999 233 34.2999Z" fill="#1E1818"/>
<path d="M169 367.3C171.74 367.25 174.48 367.05 177.19 366.68C179.89 366.29 182.61 365.79 185.12 364.71C186.35 364.17 187.56 363.41 188.22 362.26C188.86 361.08 188.48 359.65 187.74 358.55C186.21 356.33 184 354.64 181.68 353.23C177.03 350.37 172.13 347.9 167.24 345.44C162.34 343 157.39 340.64 152.44 338.3C132.62 328.95 112.63 319.94 92.8902 310.4C83.0502 305.57 73.2402 300.65 63.7002 295.22C58.9502 292.47 54.2102 289.67 49.8802 286.23C48.8102 285.35 47.7702 284.42 46.8702 283.34C46.6402 283.07 46.4202 282.79 46.2402 282.48C46.0302 282.19 45.8802 281.84 45.7302 281.51C45.4902 280.85 45.2902 280.2 45.0702 279.55C44.6202 278.25 44.2802 276.92 43.8802 275.6L42.8502 271.61C37.8602 250.21 35.9602 228.21 36.0202 206.3C36.1302 217.26 36.8002 228.21 38.0202 239.09C39.2302 249.97 40.8802 260.82 43.4902 271.45L44.5402 275.41C44.9402 276.71 45.2802 278.04 45.7402 279.32C45.9602 279.96 46.1702 280.62 46.4002 281.25C46.5402 281.53 46.6502 281.82 46.8502 282.09C47.0202 282.37 47.2202 282.63 47.4402 282.88C48.3002 283.89 49.3102 284.8 50.3602 285.65C54.6302 289.02 59.3802 291.79 64.1202 294.5C73.6602 299.86 83.4802 304.72 93.3402 309.5C113.02 319.13 132.96 328.25 152.74 337.7C157.68 340.07 162.62 342.46 167.51 344.92C172.39 347.41 177.29 349.89 181.95 352.81C184.27 354.27 186.51 356.01 188.06 358.34C188.22 358.65 188.41 358.95 188.55 359.28C188.64 359.62 188.83 359.94 188.84 360.3C189.01 361.01 188.81 361.76 188.5 362.39C187.76 363.63 186.49 364.38 185.23 364.91C182.67 365.97 179.94 366.43 177.22 366.78C174.48 367.13 171.74 367.29 169 367.3Z" fill="#1E1818"/>
<path d="M169 46.2999C171.74 46.3099 174.48 46.4699 177.2 46.7999C179.91 47.1499 182.65 47.6099 185.21 48.6699C186.47 49.2099 187.73 49.9499 188.48 51.1899C188.79 51.8199 188.99 52.5699 188.82 53.2799C188.81 53.6499 188.62 53.9599 188.53 54.2999C188.4 54.6299 188.2 54.9199 188.04 55.2399C186.49 57.5699 184.25 59.3198 181.93 60.7698C177.27 63.6998 172.37 66.1699 167.49 68.6599C162.59 71.1199 157.66 73.5199 152.72 75.8799C132.94 85.3299 113 94.4499 93.3202 104.08C83.4702 108.86 73.6402 113.73 64.1002 119.08C59.3602 121.79 54.6102 124.56 50.3402 127.93C49.2902 128.78 48.2702 129.69 47.4202 130.7C47.2002 130.95 47.0002 131.21 46.8302 131.49C46.6302 131.75 46.5202 132.05 46.3802 132.33C46.1502 132.95 45.9402 133.62 45.7202 134.26C45.2602 135.54 44.9202 136.87 44.5202 138.17L43.4702 142.13C40.8602 152.76 39.2202 163.61 38.0002 174.49C36.7702 185.37 36.1002 196.32 36.0002 207.28C35.9302 185.37 37.8302 163.37 42.8302 141.97L43.8602 137.98C44.2602 136.66 44.5902 135.33 45.0502 134.03C45.2702 133.38 45.4702 132.73 45.7102 132.07C45.8702 131.73 46.0102 131.39 46.2202 131.1C46.4102 130.79 46.6202 130.5 46.8502 130.24C47.7602 129.16 48.7902 128.22 49.8602 127.35C54.1902 123.9 58.9302 121.1 63.6802 118.36C73.2302 112.94 83.0302 108.01 92.8702 103.18C112.62 93.6399 132.6 84.6199 152.42 75.2799C157.37 72.9399 162.32 70.5699 167.22 68.1399C172.11 65.6799 177.01 63.2199 181.66 60.3499C183.98 58.9399 186.19 57.2599 187.72 55.0299C188.45 53.9399 188.84 52.4999 188.2 51.3199C187.54 50.1699 186.33 49.4099 185.1 48.8699C182.6 47.7899 179.88 47.2899 177.17 46.8999C174.48 46.5599 171.74 46.3499 169 46.2999Z" fill="#1E1818"/>
<path d="M341.8 312.76L339 257.3V144.3L341 97.2999" stroke="#1E1818" stroke-miterlimit="10"/>
<path d="M432 253.3C421.29 254.59 410.56 255.58 399.82 256.46C394.45 256.93 389.08 257.3 383.71 257.71L367.59 258.79L351.46 259.71C346.08 259.96 340.7 260.27 335.32 260.46C324.56 260.91 313.79 261.25 303 261.29C313.71 260 324.44 259.01 335.18 258.12C340.55 257.65 345.92 257.29 351.29 256.87L367.41 255.8L383.54 254.88C388.92 254.63 394.3 254.33 399.68 254.13C410.44 253.69 421.21 253.35 432 253.3Z" fill="#1E1818"/>
<path d="M432 151.3C421.21 151.25 410.44 150.91 399.68 150.46C394.3 150.26 388.92 149.96 383.54 149.71L367.41 148.79L351.29 147.71C345.92 147.29 340.55 146.93 335.18 146.46C324.44 145.57 313.71 144.58 303 143.29C313.79 143.33 324.56 143.67 335.32 144.12C340.7 144.31 346.08 144.62 351.46 144.87L367.59 145.8L383.71 146.88C389.08 147.29 394.45 147.66 399.82 148.13C410.56 149.02 421.29 150.01 432 151.3Z" fill="#1E1818"/>
<path d="M441.12 324.42C441.12 324.42 438 247.3 438 215.3C438 183.3 439.41 85.7799 439.41 85.7799" stroke="#1E1818" stroke-miterlimit="10"/>
<path d="M654.31 374.29C656.45 373.22 658.56 372.09 660.59 370.84C662.64 369.61 664.63 368.3 666.57 366.91C668.51 365.53 670.41 364.08 672.24 362.56C674.08 361.06 675.9 359.5 677.59 357.87L678.04 358.88C672.13 359.35 666.23 359.76 660.31 360.16C654.4 360.53 648.48 360.82 642.56 361.07C630.72 361.57 618.87 362 607 361.73L602.55 361.62C601.07 361.57 599.58 361.47 598.09 361.4L595.86 361.28L593.63 361.07C592.14 360.93 590.66 360.82 589.16 360.53L586.92 360.16L584.75 359.68L580.43 358.68C577.55 358.03 574.66 357.38 571.77 356.8C560.22 354.46 548.41 352.89 536.59 354.13C542.44 353.19 548.41 352.99 554.34 353.29C557.31 353.44 560.27 353.71 563.22 354.11C566.17 354.48 569.1 354.95 572.02 355.47C574.95 355.98 577.85 356.56 580.76 357.14L585.11 358.04L587.28 358.5L589.43 358.84C590.85 359.11 592.32 359.21 593.78 359.33L595.97 359.52L598.18 359.62C599.65 359.68 601.12 359.76 602.59 359.8L607.02 359.87C609.97 359.93 612.93 359.87 615.88 359.88L624.74 359.75C630.65 359.64 636.56 359.5 642.48 359.28C648.39 359.09 654.3 358.79 660.21 358.56C666.12 358.32 672.04 358.05 677.94 357.74L679.59 357.65L678.38 358.75C674.8 362 670.95 364.89 666.93 367.51C664.92 368.83 662.86 370.06 660.76 371.2C658.69 372.35 656.5 373.33 654.31 374.29Z" fill="#1E1818"/>
<path d="M557.5 36.7999C553.082 36.7999 549.5 38.5907 549.5 40.7999C549.5 43.009 553.082 44.7999 557.5 44.7999C561.919 44.7999 565.5 43.009 565.5 40.7999C565.5 38.5907 561.919 36.7999 557.5 36.7999Z" stroke="#1E1818" stroke-width="2" stroke-miterlimit="10"/>
<path d="M654.31 34.3099C656.5 35.2699 658.69 36.2499 660.78 37.4299C662.89 38.5799 664.95 39.8099 666.95 41.1199C670.98 43.7399 674.82 46.6199 678.4 49.8799L679.61 50.9799L677.96 50.8899C672.05 50.5699 666.14 50.3099 660.23 50.0699C654.32 49.8299 648.41 49.5299 642.5 49.3499C636.59 49.1299 630.68 48.9899 624.76 48.8799L615.9 48.7499C612.95 48.7599 609.99 48.6999 607.04 48.7599L602.61 48.8299C601.14 48.8699 599.67 48.9499 598.2 49.0099L595.99 49.1099L593.8 49.2999C592.34 49.4199 590.87 49.5199 589.45 49.7899L587.3 50.1299L585.13 50.5899L580.78 51.4899C577.87 52.0699 574.96 52.6499 572.04 53.1599C569.12 53.6799 566.18 54.1498 563.24 54.5198C560.3 54.9198 557.33 55.1899 554.36 55.3399C548.43 55.6399 542.46 55.4399 536.61 54.4999C548.43 55.7399 560.24 54.1699 571.79 51.8299C574.68 51.2499 577.57 50.5999 580.45 49.9499L584.77 48.9499L586.94 48.4699L589.18 48.0999C590.67 47.8099 592.16 47.6899 593.65 47.5599L595.88 47.3499L598.11 47.2299C599.6 47.1599 601.08 47.0599 602.57 47.0099L607.02 46.8999C618.89 46.6199 630.74 47.0599 642.58 47.5599C648.5 47.8199 654.42 48.1099 660.33 48.4699C666.24 48.8599 672.15 49.2799 678.06 49.7499L677.61 50.7599C675.91 49.1299 674.1 47.5699 672.26 46.0699C670.43 44.5499 668.53 43.1099 666.59 41.7199C664.65 40.3299 662.66 39.0199 660.61 37.7899C658.55 36.5099 656.45 35.3899 654.31 34.3099Z" fill="#1E1818"/>
<path d="M454.5 298.8C454.5 298.8 453.5 303.8 465.5 308.8C477.5 313.8 541.5 333.8 553.5 328.8C565.5 323.8 601.5 275.8 606.5 221.8C611.5 167.8 574.5 88.7999 565.5 82.7999C556.5 76.7999 469.5 92.7999 461.5 97.7999C453.5 102.8 450.5 111.8 450.5 111.8" stroke="#1E1818" stroke-miterlimit="10"/>
<path d="M553 343.3C558.34 339.23 563.39 334.79 568.06 329.99C572.7 325.16 577.02 320.02 580.84 314.53C584.68 309.06 588.15 303.32 591.08 297.32C593.98 291.3 596.78 285.18 599.63 279.12L603.89 270.01L606.03 265.46L607.1 263.19C607.41 262.49 607.69 261.66 607.97 260.89C610.18 254.6 612.01 248.15 613.51 241.65C616.48 228.63 618.07 215.27 617.3 201.96C616.59 188.63 614.57 175.35 612.15 162.18C611.53 158.89 610.9 155.6 610.22 152.32C609.54 149.02 608.88 145.78 607.87 142.63C606.88 139.47 605.65 136.38 604.22 133.39C602.79 130.42 601.09 127.5 599.52 124.54L589.9 106.86C586.66 101.01 583.01 95.3899 579 90.0399C571.05 79.2699 561.54 69.6599 551.01 61.3399C561.82 69.2999 571.52 78.8099 579.78 89.4499C583.91 94.7699 587.65 100.4 591 106.25L600.87 123.81C602.49 126.75 604.21 129.62 605.73 132.67C607.23 135.72 608.49 138.88 609.53 142.12C610.59 145.35 611.28 148.7 611.97 151.97C612.67 155.26 613.32 158.56 613.95 161.86C616.44 175.07 618.54 188.39 619.31 201.88C620.03 215.41 618.34 228.96 615.29 242.08C613.75 248.65 611.88 255.13 609.61 261.5C609.31 262.3 609.06 263.07 608.69 263.9L607.6 266.17L605.42 270.71L601.03 279.78C598.09 285.82 595.22 291.88 592.21 297.91C589.17 303.93 585.6 309.68 581.64 315.13C573.65 325.96 563.96 335.54 553 343.3Z" fill="#1E1818"/>
<path d="M535 327.3C535 327.3 567 308.3 582 266.3C597 224.3 588.51 165.32 581 145.3C572 121.3 550.9 81.6899 550.9 81.6899" stroke="#1E1818" stroke-miterlimit="10"/>
</g>
<defs>
<filter id="filter0_d_1_175" x="0.50061" y="-0.00012207" width="807.999" height="417.3" filterUnits="userSpaceOnUse" color-interpolation-filters="sRGB">
<feFlood flood-opacity="0" result="BackgroundImageFix"/>
<feColorMatrix in="SourceAlpha" type="matrix" values="0 0 0 0 0 0 0 0 0 0 0 0 0 0 0 0 0 0 127 0" result="hardAlpha"/>
<feOffset dy="4"/>
<feGaussianBlur stdDeviation="2"/>
<feComposite in2="hardAlpha" operator="out"/>
<feColorMatrix type="matrix" values="0 0 0 0 0 0 0 0 0 0 0 0 0 0 0 0 0 0 0.25 0"/>
<feBlend mode="normal" in2="BackgroundImageFix" result="effect1_dropShadow_1_175"/>
<feBlend mode="normal" in="SourceGraphic" in2="effect1_dropShadow_1_175" result="shape"/>
</filter>
</defs>
</svg>
